<svg width="532.471680" height="46.453125" viewBox="0 0 532.472 46.4531" fill="none" xmlns="http://www.w3.org/2000/svg" xmlns:xlink="http://www.w3.org/1999/xlink">
	<desc>
			Created with Pixso.
	</desc>
	<path d="M103.552 38.3281L106.88 46.4531L116.161 46.4531L109.052 28.7344L117.817 13.5625L108.536 13.5625L105.286 19.1875L101.755 10.2969L117.817 10.2969L113.349 0.0625L104.067 0.0625L105.724 3.89062L99.2549 3.89062L97.6611 0L89.083 0L90.5518 3.89062L64.0049 3.89062L64.0049 39.9219L61.3799 46.4531L69.3799 46.4531L72.0049 39.9219L72.0049 21.9531L81.5986 21.9531L81.5986 38.0781Q81.5986 38.9062 81.083 39.4219Q80.4424 40.0625 79.5518 40.0625L78.1455 40.0625L75.708 46.3906L82.6299 46.3906Q84.0361 46.3906 85.3799 45.875Q86.583 45.3125 87.6143 44.3438Q88.4424 43.5156 89.1455 42.1094Q89.6611 40.9531 89.6611 39.3594L89.6611 15.6094L72.0049 15.6094L72.0049 10.2969L92.9893 10.2969L99.7705 28.5312L89.5361 46.3906L98.7549 46.3906L103.552 38.3281ZM441.92 40.375L439.545 46.2656L446.842 46.2656L449.217 40.375L449.217 22.2656L465.029 22.2656Q464.389 25.0156 463.326 27.2031Q462.264 29.375 460.92 31.0938Q459.842 29.8125 458.967 28.2188Q458.107 26.625 457.467 24.7031L449.404 24.7031Q451.639 31.3594 455.295 36.0938Q453.764 36.9844 452.217 37.625Q450.685 38.2656 449.279 38.6562L449.279 46.2031Q452.482 45.6875 455.357 44.5781Q458.232 43.4531 460.92 41.5312Q463.685 43.5781 466.717 44.7344Q469.764 45.875 473.092 46.3281L473.092 38.8438Q471.607 38.4531 469.904 37.7812Q468.217 37.1094 466.56 36.0938Q468.607 33.4062 470.264 29.9844Q471.936 26.5469 473.092 22.2656L473.092 16.7031L462.529 16.7031L462.529 8.375L466.373 8.375L464.889 14.2031L471.045 14.2031L473.857 3.125L462.529 3.125L462.529 0L454.967 0L454.967 3.125L441.92 3.125L441.92 40.375ZM4.21875 0.0625L0 0.0625L0 46.2031L8 46.2031L8 6.32812L11.7031 6.32812L8.51562 25.5938L12.4219 25.5938L8.51562 43.5156L16.4531 43.5156L21.7656 20.3438L17.8594 20.3438L21.0625 0.0625L4.21875 0.0625ZM44.2188 39.4844Q43.6406 40.0625 42.75 40.0625L38.6562 40.0625L36.8594 46.1406L46.6562 46.3906Q48.0625 46.3906 49.3438 45.8594Q50.625 45.3125 51.5781 44.3594Q52.5469 43.3906 53.1094 42.1094Q53.6875 40.8281 53.6875 39.3594L53.6875 6.39062L56.25 6.39062L56.25 0.0625L23.0312 0.0625L23.0312 6.39062L44.7969 6.39062L44.7969 38.0781Q44.7969 38.9062 44.2188 39.4844ZM150.52 0.0625L122.817 2.04688L122.817 8.25L132.474 7.54688L132.474 13.9531L122.817 13.9531L122.817 20.2812L132.474 20.2812L132.474 46.3281L140.864 46.3281L140.864 20.2812L150.52 20.2812L150.52 13.9531L140.864 13.9531L140.864 6.96875L150.52 6.26562L150.52 0.0625ZM185.978 0.0625L181.76 0.0625L181.76 46.2031L189.76 46.2031L189.76 6.32812L193.463 6.32812L190.275 25.5938L194.182 25.5938L190.275 43.5156L198.213 43.5156L203.525 20.3438L199.619 20.3438L202.822 0.0625L185.978 0.0625ZM225.978 39.4844Q225.4 40.0625 224.51 40.0625L220.416 40.0625L218.619 46.1406L228.416 46.3906Q229.822 46.3906 231.103 45.8594Q232.385 45.3125 233.338 44.3594Q234.307 43.3906 234.869 42.1094Q235.447 40.8281 235.447 39.3594L235.447 6.39062L238.01 6.39062L238.01 0.0625L204.791 0.0625L204.791 6.39062L226.557 6.39062L226.557 38.0781Q226.557 38.9062 225.978 39.4844ZM312.957 5.17188L315.832 0.0625L306.301 0.0625L303.363 5.17188L299.519 5.17188L299.519 46.2656L317.629 46.2656Q319.035 46.2656 320.316 45.7188Q321.598 45.1719 322.551 44.2188Q323.519 43.25 324.066 41.9844Q324.613 40.7031 324.613 39.2188L324.613 5.17188L312.957 5.17188ZM355.832 4.15625L337.598 4.15625L339.004 0.0625L329.723 0.0625L326.207 10.4844L346.941 10.4844L346.941 38.8438Q346.941 39.6719 346.363 40.25Q345.785 40.8281 344.957 40.8281L334.082 40.8281L331.582 46.3906L348.801 46.3906Q350.207 46.3906 351.488 45.8594Q352.769 45.3125 353.723 44.3594Q354.691 43.3906 355.254 42.1094Q355.832 40.8281 355.832 39.3594L355.832 4.15625ZM476.159 9.46875L502.597 9.46875L502.597 4.21875L494.722 4.21875L492.987 0.0625L483.394 0.0625L485.05 4.21875L476.159 4.21875L476.159 9.46875ZM293.311 15.4844L297.155 15.4844L297.155 10.75Q297.155 9.28125 296.608 8Q296.061 6.71875 295.093 5.76562Q294.14 4.79688 292.858 4.25Q291.577 3.70312 290.108 3.70312L273.858 3.70312L272.249 0.125L262.593 0.125L264.186 3.70312L240.452 3.70312L240.452 15.4844L244.28 15.4844L244.28 21.625L264.124 21.625L264.124 26.4844L240.452 26.4844L240.452 32.8281L264.124 32.8281L264.124 38.0156Q264.124 38.8438 263.546 39.4219Q262.968 40 262.14 40L256.124 40L253.765 46.3281L265.983 46.3281Q267.39 46.3281 268.671 45.7812Q269.952 45.2344 270.905 44.2812Q271.874 43.3281 272.436 42.0469Q273.015 40.7656 273.015 39.2969L273.015 32.8281L296.64 32.8281L296.64 26.4844L273.015 26.4844L273.015 21.625L293.311 21.625L293.311 15.4844ZM531.55 41.9844Q532.097 40.7031 532.097 39.2188L532.097 21.625L521.722 21.625L521.722 11.8906L532.472 11.8906L532.472 5.5625L521.722 5.5625L521.722 0.4375L512.831 0.4375L512.831 21.625L504.503 21.625L504.503 46.2656L525.112 46.2656Q526.519 46.2656 527.8 45.7188Q529.081 45.1719 530.034 44.2188Q531.003 43.25 531.55 41.9844ZM376.696 39.8594L374.524 45.8125L385.212 45.8125Q387.587 45.8125 389.243 44.1562Q390.915 42.4844 390.915 40.125L390.915 0.640625L382.009 0.640625L382.009 38.3906Q382.009 39.0312 381.587 39.4531Q381.181 39.8594 380.602 39.8594L376.696 39.8594ZM416.951 27.5156L420.357 27.5156L420.357 46.3906L433.529 46.3906Q434.748 46.3906 435.795 45.9531Q436.857 45.5 437.654 44.7031Q438.467 43.8906 438.904 42.8125Q439.357 41.7188 439.357 40.5L439.357 17.0781L426.935 17.0781L428.982 6.96875L439.998 6.96875L439.998 0.640625L418.107 0.640625L418.107 6.96875L421.06 6.96875L416.951 27.5156ZM179.255 2.9375L170.364 2.9375L170.364 3L153.411 3L153.411 42.3594L153.474 42.3594L153.474 44.6094L172.224 44.6094Q173.63 44.6094 174.911 44.0625Q176.192 43.5156 177.145 42.5625Q178.114 41.5938 178.677 40.3438Q179.255 39.0938 179.255 37.625L179.255 2.9375ZM359.227 40.5L367.868 40.5L374.915 7.42188L366.337 7.42188L359.227 40.5ZM398.149 7.42188L405.243 40.5L413.821 40.5L406.712 7.42188L398.149 7.42188ZM449.217 16.7031L449.217 8.375L454.967 8.375L454.967 16.7031L449.217 16.7031ZM162.302 9.34375L170.364 9.34375L170.364 36.2812Q170.364 37.1719 169.786 37.75Q169.208 38.3281 168.38 38.3281L162.302 38.3281L162.302 9.34375ZM249.343 15.2969L249.343 10.0469L286.265 10.0469Q287.108 10.0469 287.671 10.625Q288.249 11.1875 288.249 12.0312L288.249 15.2969L249.343 15.2969ZM43.4531 11.1875L23.0312 11.1875L23.0312 35.25L36.4219 35.25Q37.8281 35.25 39.0938 34.7188Q40.375 34.1719 41.3281 33.2188Q42.2969 32.25 42.875 30.9688Q43.4531 29.6875 43.4531 28.2188L43.4531 11.1875ZM225.213 11.1875L204.791 11.1875L204.791 35.25L218.182 35.25Q219.588 35.25 220.853 34.7188Q222.135 34.1719 223.088 33.2188Q224.057 32.25 224.635 30.9688Q225.213 29.6875 225.213 28.2188L225.213 11.1875ZM308.41 11.5156L315.769 11.5156L315.769 24.25L308.41 24.25L308.41 11.5156ZM476.159 46.3906L502.597 46.3906L502.597 41.0781L497.784 41.0781L500.222 12.7344L492.612 12.7344L490.175 41.0781L488.581 41.0781L486.144 12.7344L478.519 12.7344L480.956 41.0781L476.159 41.0781L476.159 46.3906ZM32.5781 30.3281L31.2344 30.3281L31.2344 16.125L34.5625 16.125L34.5625 28.3438Q34.5625 29.1719 33.9844 29.75Q33.4062 30.3281 32.5781 30.3281ZM214.338 30.3281L212.994 30.3281L212.994 16.125L216.322 16.125L216.322 28.3438Q216.322 29.1719 215.744 29.75Q215.166 30.3281 214.338 30.3281ZM329.785 17.2812L335.738 29.5L345.082 29.5L339.129 17.2812L329.785 17.2812ZM122.817 46.3281L129.536 46.3281L131.52 23.2188L124.802 23.2188L122.817 46.3281ZM143.739 46.3281L150.52 46.3281L148.864 23.2188L142.083 23.2188L143.739 46.3281ZM430.779 40.0625L427.842 40.0625L427.842 23.4219L432.123 23.4219L432.123 38.7188Q432.123 39.2969 431.732 39.6875Q431.357 40.0625 430.779 40.0625ZM513.987 27.9688L522.628 27.9688L522.628 37.9531Q522.628 38.7812 522.05 39.3594Q521.472 39.9219 520.644 39.9219L513.987 39.9219L513.987 27.9688ZM315.191 39.3594Q314.629 39.9219 313.723 39.9219L308.41 39.9219L308.41 30.5156L315.769 30.5156L315.769 37.9531Q315.769 38.7812 315.191 39.3594Z" fill="#FFFFFF"/>
	<defs/>
</svg>
